# xmcd
#
# Track frame offsets:
# 150
# 20025
# 35432
# 57787
# 76725
# 93487
# 108000
# 124762
# 144600
# 165412
#
# Disc length: 2488 seconds
#
#
# Revision: 0
# Processed by: cddbd v1.5.1PL2 Copyright (c) Steve Scherf et al.
# Submitted via: FreeRIP 2.944 
#
DISCID=7509b60a
DTITLE=Deanna Wilson - Jesus Is All They Need
DYEAR=1900
DGENRE=Christian
TTITLE0=Freedom In The Son
TTITLE1=Help My Unbelief
TTITLE2=I Find My Strength In You
TTITLE3=Your Grace Is Amazing
TTITLE4=My Life
TTITLE5=Surrender
TTITLE6=Taste And See
TTITLE7=It's A Miracle
TTITLE8=At The Foot Of The Cross
TTITLE9=Jesus Is All They Need
EXTD=
EXTT0=
EXTT1=
EXTT2=
EXTT3=
EXTT4=
EXTT5=
EXTT6=
EXTT7=
EXTT8=
EXTT9=
PLAYORDER=
